<svg id="Réteg_1" data-name="Réteg 1" xmlns="http://www.w3.org/2000/svg" viewBox="0 0 192.91 192.91"><defs><style>.cls-1{fill:#ff91af;}.cls-2{fill:#fff;}</style></defs><circle class="cls-1" cx="96.46" cy="96.46" r="96.46"/><path class="cls-2" d="M91.16,78.24c-2.73-.86-5-1.54-6.92-2.06s-3.7-.91-5.45-1.21a37.26,37.26,0,0,0-6.21-.45,19.35,19.35,0,0,0-11.41,3.72,26.54,26.54,0,0,0-8.46,10.25,35.6,35.6,0,0,0-3.2,15.76,37.38,37.38,0,0,0,1.73,11.6,31.9,31.9,0,0,0,4.68,9.29,20.59,20.59,0,0,0,7.17,6.15,19.78,19.78,0,0,0,9.23,2.18,39.86,39.86,0,0,0,9.81-1.15,41.66,41.66,0,0,0,8.39-3.08l7.18,14.23a43.49,43.49,0,0,1-7.82,3.07A76.52,76.52,0,0,1,81,148.59a49.6,49.6,0,0,1-8.46.77A46.42,46.42,0,0,1,54.32,146a37,37,0,0,1-13.46-9.55,41.11,41.11,0,0,1-8.2-14.29,55,55,0,0,1-2.76-17.75,54.65,54.65,0,0,1,3-18.46,40.27,40.27,0,0,1,8.78-14.48A41.58,41.58,0,0,1,55.34,62a43.86,43.86,0,0,1,17.49-3.39,44.34,44.34,0,0,1,7.44.7,63.79,63.79,0,0,1,8.52,2.12,49.39,49.39,0,0,1,8.27,3.46Z" transform="translate(-11.25 -6.54)"/><path class="cls-2" d="M171.13,78.24c-2.73-.86-5-1.54-6.92-2.06s-3.7-.91-5.45-1.21a37.26,37.26,0,0,0-6.21-.45,19.35,19.35,0,0,0-11.41,3.72,26.54,26.54,0,0,0-8.46,10.25,35.6,35.6,0,0,0-3.2,15.76,37.38,37.38,0,0,0,1.73,11.6,31.9,31.9,0,0,0,4.68,9.29,20.59,20.59,0,0,0,7.17,6.15,19.78,19.78,0,0,0,9.23,2.18,39.86,39.86,0,0,0,9.81-1.15,41.66,41.66,0,0,0,8.39-3.08l7.18,14.23a43.49,43.49,0,0,1-7.82,3.07,76.52,76.52,0,0,1-8.84,2.05,49.51,49.51,0,0,1-8.46.77A46.42,46.42,0,0,1,134.29,146a37,37,0,0,1-13.46-9.55,41.11,41.11,0,0,1-8.2-14.29,55,55,0,0,1-2.76-17.75,54.9,54.9,0,0,1,3-18.46,40.27,40.27,0,0,1,8.78-14.48A41.58,41.58,0,0,1,135.31,62a44.55,44.55,0,0,1,24.93-2.69,63.79,63.79,0,0,1,8.52,2.12A49.39,49.39,0,0,1,177,64.91Z" transform="translate(-11.25 -6.54)"/></svg>